<svg xmlns="http://www.w3.org/2000/svg" version="1.1" xmlns:xlink="http://www.w3.org/1999/xlink" xmlns:svgjs="http://svgjs.dev/svgjs" width="1000" height="419" viewBox="0 0 1000 419"><g transform="matrix(1,0,0,1,-0.6060606060606233,0.417488124467269)"><svg viewBox="0 0 396 166" data-background-color="#ffffff" preserveAspectRatio="xMidYMid meet" height="419" width="1000" xmlns="http://www.w3.org/2000/svg" xmlns:xlink="http://www.w3.org/1999/xlink"><g id="tight-bounds" transform="matrix(1,0,0,1,0.2400000000000091,-0.16540102305863513)"><svg viewBox="0 0 395.52 166.33080204611727" height="166.33080204611727" width="395.52"><g><svg viewBox="0 0 709.0050210525083 298.16285853152294" height="166.33080204611727" width="395.52"><g><rect width="10.548714667521716" height="248.43599999999995" x="337.04455104772114" y="24.863429265761496" fill="#e65728" opacity="1" stroke-width="0" stroke="transparent" fill-opacity="1" class="rect-r$-0" data-fill-palette-color="secondary" rx="1%" id="r$-0" data-palette-color="#e65728"></rect></g><g transform="matrix(1,0,0,1,375.2077020176557,25.481429265761477)"><svg viewBox="0 0 333.79731903485253 247.2" height="247.2" width="333.79731903485253"><g id="textblocktransform"><svg viewBox="0 0 333.79731903485253 247.2" height="247.2" width="333.79731903485253" id="textblock"><g><svg viewBox="0 0 333.79731903485253 247.2" height="247.2" width="333.79731903485253"><g transform="matrix(1,0,0,1,0,0)"><svg width="333.79731903485253" viewBox="5.349999999999996 -42.3 151.1 110.8" height="247.2" data-palette-color="#000000"><svg></svg><svg></svg><g class="wordmark-text-0" data-fill-palette-color="primary" id="text-0"><path d="M10.2-4.35h15.85v4.35h-20.7v-37.9h4.85zM32.55-32.85v-7.55h4.7v7.55zM32.55 0v-27.65h4.7v27.65zM59.4-28.25c3.4 0 5.923 0.9 7.57 2.7 1.653 1.8 2.48 4.767 2.48 8.9v0 16.65h-4.7v-16.65c0-2.6-0.443-4.45-1.33-5.55-0.88-1.1-2.437-1.65-4.67-1.65v0c-2.6 0-5.2 1.133-7.8 3.4v0 20.45h-4.7v-27.65h4.7v2.95c2.733-2.367 5.55-3.55 8.45-3.55zM96 0l-10.1-12.75-3 3.05v9.7h-4.7v-42.3h4.7v26.65l11.3-11.65h5.9l-11 11.3 12.6 16z" fill="#000000" fill-rule="nonzero" stroke="none" stroke-width="1" stroke-linecap="butt" stroke-linejoin="miter" stroke-miterlimit="10" stroke-dasharray="" stroke-dashoffset="0" font-family="none" font-weight="none" font-size="none" text-anchor="none" style="mix-blend-mode: normal" data-fill-palette-color="primary" opacity="1"></path><path transform="translate(0,55.95)" d="M17.95-37.9c6.233 0 10.943 1.607 14.13 4.82 3.18 3.22 4.77 7.947 4.77 14.18v0c0 6.267-1.583 10.983-4.75 14.15-3.167 3.167-7.883 4.75-14.15 4.75v0h-12.6v-37.9zM31.85-19.05c0-5-1.167-8.683-3.5-11.05-2.333-2.367-5.8-3.55-10.4-3.55v0h-7.75v29.4h7.75c4.633 0 8.11-1.183 10.43-3.55 2.313-2.367 3.47-6.117 3.47-11.25zM44.3-32.85v-7.55h4.7v7.55zM44.3 0v-27.65h4.7v27.65zM76.5-27.65h4.7v28.2c0 3.767-0.873 6.71-2.62 8.83-1.753 2.113-4.813 3.17-9.18 3.17v0c-2.133 0-3.973-0.133-5.52-0.4-1.553-0.267-3.147-0.733-4.78-1.4v0-4.65c1.533 0.7 3.067 1.227 4.6 1.58 1.533 0.347 2.95 0.52 4.25 0.52v0c2.4 0 4.217-0.307 5.45-0.92 1.233-0.62 2.06-1.503 2.48-2.65 0.413-1.153 0.62-2.68 0.62-4.58v0-3.55c-2.633 2.233-5.3 3.35-8 3.35v0c-3.733 0-6.707-1.217-8.92-3.65-2.22-2.433-3.33-5.933-3.33-10.5v0c0-4.6 1.117-8.11 3.35-10.53 2.233-2.413 5.2-3.62 8.9-3.62v0c2.667 0 5.333 1.133 8 3.4v0zM69.15-4.5c2.433 0 4.883-1.033 7.35-3.1v0-13.35c-2.4-2.067-4.85-3.1-7.35-3.1v0c-2.6 0-4.59 0.857-5.97 2.57-1.387 1.72-2.08 4.113-2.08 7.18v0c0 3.167 0.683 5.59 2.05 7.27 1.367 1.687 3.367 2.53 6 2.53zM92.65-13.45c0.067 3.067 0.833 5.517 2.3 7.35 1.467 1.833 3.8 2.75 7 2.75v0c2.433 0 5.1-0.683 8-2.05v0l1.45 3.9c-3.033 1.567-6.317 2.35-9.85 2.35v0c-2.933 0-5.433-0.617-7.5-1.85-2.067-1.233-3.633-2.95-4.7-5.15-1.067-2.2-1.6-4.767-1.6-7.7v0c0-3.1 0.56-5.743 1.68-7.93 1.113-2.18 2.62-3.837 4.52-4.97 1.9-1.133 4.033-1.7 6.4-1.7v0c3.633 0 6.483 1.133 8.55 3.4 2.067 2.267 3.1 5.517 3.1 9.75v0 1.85zM100.35-24.25c-4.133 0-6.6 2.283-7.4 6.85v0h14.1c-0.167-2.333-0.8-4.06-1.9-5.18-1.1-1.113-2.7-1.67-4.8-1.67zM127.1 0.85c-2.033 0-3.833-0.167-5.4-0.5-1.567-0.333-3.2-0.9-4.9-1.7v0-4.65c3.167 1.767 6.6 2.65 10.3 2.65v0c1.867 0 3.21-0.377 4.03-1.13 0.813-0.747 1.22-1.737 1.22-2.97v0c0-1.2-0.323-2.083-0.97-2.65-0.653-0.567-1.713-1.05-3.18-1.45v0l-3.25-0.8c-2.333-0.567-4.167-1.467-5.5-2.7-1.333-1.233-2-3.05-2-5.45v0c0-2.5 0.817-4.45 2.45-5.85 1.633-1.4 4.033-2.1 7.2-2.1v0c1.633 0 3.15 0.157 4.55 0.47 1.4 0.32 2.8 0.763 4.2 1.33v0 4.4c-1.367-0.633-2.717-1.127-4.05-1.48-1.333-0.347-2.85-0.52-4.55-0.52v0c-1.767 0-3.04 0.34-3.82 1.02-0.787 0.687-1.18 1.547-1.18 2.58v0c0 1.133 0.343 1.993 1.03 2.58 0.68 0.58 1.67 1.037 2.97 1.37v0l3.3 0.75c1.667 0.4 3.043 0.9 4.13 1.5 1.08 0.6 1.93 1.44 2.55 2.52 0.613 1.087 0.92 2.53 0.92 4.33v0c0 2.7-0.907 4.783-2.72 6.25-1.82 1.467-4.263 2.2-7.33 2.2zM156.45-22.95h-6.4v15.8c0 1.333 0.21 2.243 0.63 2.73 0.413 0.48 1.187 0.72 2.32 0.72v0c1 0 2.067-0.133 3.2-0.4v0 4.25c-1.5 0.333-2.833 0.5-4 0.5v0c-2.533 0-4.307-0.517-5.32-1.55-1.02-1.033-1.53-2.767-1.53-5.2v0-16.85h-3.6v-4.35h3.6v-9.5h4.7v9.5h6.4z" fill="#e65728" fill-rule="nonzero" stroke="none" stroke-width="1" stroke-linecap="butt" stroke-linejoin="miter" stroke-miterlimit="10" stroke-dasharray="" stroke-dashoffset="0" font-family="none" font-weight="none" font-size="none" text-anchor="none" style="mix-blend-mode: normal" data-fill-palette-color="secondary" opacity="1"></path></g></svg></g></svg></g></svg></g></svg></g><g><svg viewBox="0 0 309.4301147453083 298.16285853152294" height="298.16285853152294" width="309.4301147453083"><g><svg xmlns="http://www.w3.org/2000/svg" xmlns:xlink="http://www.w3.org/1999/xlink" version="1.1" x="8" y="0" viewBox="4 3.5 62 63" style="enable-background:new 0 0 70 70;" xml:space="preserve" height="298.16285853152294" width="293.4301147453083" class="icon-icon-0" data-fill-palette-color="accent" id="icon-0"><path d="M10.041 44.479c-0.205 0.681-0.317 1.397-0.317 2.135 0 3.164 1.989 5.888 4.836 7.115v0.725c0 4.614 3.938 8.368 8.778 8.368 0.588 0 1.161-0.073 1.725-0.18C26.161 64.938 28.56 66.5 31.417 66.5c2.43 0 4.431-1.154 5.565-3H41c0.552 0 1-0.448 1-1v-4.533c2.845-0.599 5.601-1.739 8.057-3.336l3.206 3.206c0.188 0.188 0.442 0.293 0.707 0.293s0.52-0.105 0.707-0.293l5.66-5.66c0.391-0.391 0.391-1.023 0-1.414l-3.207-3.206c1.597-2.456 2.738-5.211 3.337-8.057H65c0.552 0 1-0.448 1-1v-8c0-0.552-0.448-1-1-1h-4.533c-0.599-2.845-1.74-5.601-3.337-8.056l3.207-3.207c0.391-0.391 0.391-1.023 0-1.414l-5.66-5.66c-0.375-0.375-1.039-0.375-1.414 0l-3.206 3.207C47.602 12.773 44.846 11.632 42 11.034V6.5c0-0.552-0.448-1-1-1h-4.882c-1.183-1.248-2.841-2-4.733-2-2.49 0-4.672 1.317-5.905 3.287h-1.848c-4.835 0-8.768 3.762-8.768 8.385v0.286c-4.188 0.366-7.486 3.887-7.486 8.168 0 1.802 0.594 3.464 1.586 4.818C6.055 29.92 4 33.073 4 36.32 4 40.009 6.529 43.326 10.041 44.479zM40 7.5v4.36c0 0.487 0.351 0.903 0.831 0.986 3.124 0.538 6.158 1.794 8.774 3.633 0.397 0.279 0.938 0.231 1.282-0.112l3.083-3.083 4.246 4.246-3.083 3.083c-0.344 0.344-0.391 0.884-0.112 1.282 1.839 2.618 3.096 5.652 3.634 8.774C58.737 31.149 59.153 31.5 59.64 31.5H64v6h-4.36c-0.487 0-0.903 0.351-0.985 0.831-0.538 3.123-1.794 6.157-3.634 8.774-0.279 0.397-0.232 0.938 0.112 1.282l3.083 3.083-4.246 4.246-3.083-3.083c-0.343-0.342-0.885-0.391-1.282-0.111-2.618 1.839-5.652 3.095-8.774 3.633C40.351 56.237 40 56.653 40 57.14V61.5h-2.207c0.128-0.55 0.202-1.128 0.202-1.737V49.45C45.802 48.933 52 42.435 52 34.5s-6.198-14.433-14.005-14.95v-9.124c0-1.06-0.21-2.045-0.582-2.926H40zM37.995 47.45V21.55C44.699 22.062 50 27.667 50 34.5S44.699 46.938 37.995 47.45zM10.438 29.994c1.409 1.135 3.197 1.818 5.145 1.818 0.552 0 1-0.448 1-1s-0.448-1-1-1c-3.421 0-6.205-2.775-6.205-6.186 0-3.421 2.784-6.205 6.205-6.205 1.654 0 3.207 0.644 4.374 1.813 0.391 0.391 1.023 0.391 1.414 0.002 0.391-0.391 0.392-1.023 0.002-1.415-1.239-1.241-2.808-2.025-4.509-2.291v-0.358c0-3.521 3.036-6.385 6.768-6.385h0.999c-0.134 0.539-0.213 1.1-0.213 1.68 0 0.315 0.023 0.618 0.058 0.921 0.064 0.548 0.563 0.951 1.108 0.878 0.549-0.063 0.942-0.56 0.878-1.108-0.026-0.227-0.044-0.455-0.044-0.691C26.418 7.729 28.646 5.5 31.385 5.5c2.671 0 4.61 2.072 4.61 4.926v49.337c0 2.789-1.883 4.737-4.578 4.737-2.803 0-4.999-2.063-4.999-4.696 0-0.699 0.153-1.407 0.441-2.047 0.228-0.503 0.004-1.096-0.499-1.322-0.503-0.227-1.095-0.003-1.323 0.499-0.411 0.909-0.619 1.875-0.619 2.87 0 0.314 0.029 0.619 0.071 0.92-0.379 0.06-0.764 0.097-1.151 0.098-3.738 0-6.779-2.857-6.778-6.368v-0.146c0.446 0.072 0.902 0.118 1.369 0.118 1.256 0 2.461-0.264 3.583-0.786 0.501-0.232 0.718-0.827 0.486-1.328-0.233-0.501-0.828-0.719-1.329-0.485-0.856 0.397-1.778 0.599-2.74 0.599-3.421 0-6.205-2.607-6.205-5.812 0-3.02 2.506-5.572 5.705-5.812 0.551-0.041 0.964-0.521 0.922-1.072-0.041-0.551-0.52-0.965-1.072-0.922-2.732 0.205-5.077 1.708-6.401 3.835C8.378 41.887 6 39.474 6 36.32 6 33.601 7.881 30.983 10.438 29.994z" fill="#e65728" data-fill-palette-color="accent"></path><path d="M19.487 25.947c0.479 0.082 1.034 0.131 1.635 0.131 3.172 0 7.606-1.39 8.693-6.828 0.108-0.542-0.243-1.068-0.784-1.177-0.544-0.107-1.069 0.243-1.177 0.784-1.234 6.167-7.753 5.165-8.033 5.118-0.542-0.091-1.059 0.275-1.152 0.818C18.577 25.337 18.943 25.854 19.487 25.947z" fill="#e65728" data-fill-palette-color="accent"></path><path d="M26.914 44.341c-2.156-1.24-4.37-0.65-4.465-0.624-0.53 0.146-0.839 0.691-0.696 1.222 0.143 0.531 0.692 0.847 1.222 0.707 0.404-0.106 4.013-0.896 5.318 4.05 0.118 0.448 0.523 0.745 0.967 0.745 0.084 0 0.17-0.011 0.256-0.033 0.534-0.141 0.853-0.688 0.711-1.222C29.62 46.886 28.505 45.256 26.914 44.341z" fill="#e65728" data-fill-palette-color="accent"></path></svg></g></svg></g></svg></g><defs></defs></svg><rect width="395.52" height="166.33080204611727" fill="none" stroke="none" visibility="hidden"></rect></g></svg></g></svg>